<svg xmlns="http://www.w3.org/2000/svg" viewBox="0 0 64 64">
  <defs>
    <linearGradient id="g" x1="0" y1="0" x2="1" y2="1">
      <stop stop-color="#a8e632"/>
      <stop offset="1" stop-color="#07865d"/>
    </linearGradient>
  </defs>
  <rect width="64" height="64" rx="18" fill="#102b38"/>
  <path d="M13 32c0-13 9-22 22-22m-22 32c0-13 9-22 22-22m-22 32c0-13 9-22 22-22m2-20c10 2 16 10 16 20 0 11-8 20-19 21" fill="none" stroke="url(#g)" stroke-linecap="round" stroke-width="4"/>
  <path d="M17 48c7-1 14-5 18-12-9 0-15 4-18 12Z" fill="url(#g)"/>
  <circle cx="47" cy="47" r="3" fill="#d8ae55"/>
  <circle cx="55" cy="55" r="2.5" fill="#68d5d3"/>
  <path d="m47 47 8 8" stroke="#68d5d3" stroke-width="2"/>
</svg>
